<svg version="1.1" xmlns="http://www.w3.org/2000/svg" xmlns:xlink="http://www.w3.org/1999/xlink" width="23.1516" height="51.07423" viewBox="0,0,23.1516,51.07423"><g transform="translate(-227.5,-165.02577)"><g data-paper-data="{&quot;isPaintingLayer&quot;:true}" fill-rule="nonzero" stroke-linejoin="miter" stroke-miterlimit="10" stroke-dasharray="" stroke-dashoffset="0" style="mix-blend-mode: normal"><path d="M239.55,202.95c0,0 -0.296,-7.551 -0.35,-11.15c-0.007,-2.199 0.15,-6.6 0.15,-6.6" fill="none" stroke="#000000" stroke-width="2" stroke-linecap="round"/><g stroke-linecap="butt"><path d="M239.3052,166.101c2.5315,-0.323 4.957,0.4119 6.8296,1.8616c1.8734,1.4485 3.1938,3.6118 3.5168,6.1433c0.3229,2.5315 -0.412,4.957 -1.8616,6.8295c-1.4486,1.8734 -3.6119,3.1938 -6.1433,3.5168c-2.5315,0.323 -4.957,-0.4119 -6.8296,-1.8616c-1.8734,-1.4485 -3.1938,-3.6118 -3.5168,-6.1433c-0.323,-2.5315 0.412,-4.957 1.8616,-6.8295c1.4486,-1.8734 3.6118,-3.1938 6.1433,-3.5168z" fill="#e5e5e5" stroke="#000000" stroke-width="2"/><path d="M234.9455,169.8312c1.2485,-1.2687 2.6464,-2.1547 3.8983,-2.5615c1.2504,-0.4068 2.3548,-0.3344 3.0135,0.3136c0.6586,0.6481 0.7488,1.7512 0.3622,3.0081c-0.3865,1.2583 -1.2498,2.6703 -2.4983,3.9391c-1.2484,1.2687 -2.6463,2.1547 -3.8982,2.5615c-1.2505,0.4068 -2.3549,0.3344 -3.0135,-0.3136c-0.6586,-0.6481 -0.7488,-1.7512 -0.3623,-3.0081c0.3866,-1.2583 1.2499,-2.6703 2.4983,-3.9391z" fill="#ffffff" stroke="none" stroke-width="1"/></g><path d="M228.5,201.5c0,0 1.942,-7.053 4,-9.5c1.769,-2.113 4.429,-5.611 6.7,-4.85c2.142,0.721 0.623,5.28 2.05,7.35c0.972,1.286 4,1.75 4,1.75" fill="none" stroke="#000000" stroke-width="2" stroke-linecap="round"/><path d="M236.65,215.1c0,0 3.079,-3.846 3.65,-6.3c0.447,-1.9 -1.832,-5.77 -0.75,-6.1c1.267,-0.381 4.227,2.509 5,4.6c0.895,2.209 -0.5,7 -0.5,7" fill="none" stroke="#000000" stroke-width="2" stroke-linecap="round"/></g></g></svg>