<svg version="1.1" xmlns="http://www.w3.org/2000/svg" xmlns:xlink="http://www.w3.org/1999/xlink" width="22.2" height="51.8" viewBox="0,0,22.2,51.8"><g transform="translate(-228.25,-164.45)"><g data-paper-data="{&quot;isPaintingLayer&quot;:true}" fill-rule="nonzero" stroke-linejoin="miter" stroke-miterlimit="10" stroke-dasharray="" stroke-dashoffset="0" style="mix-blend-mode: normal"><path d="M239.55,201.95c0,0 -0.296,-7.551 -0.35,-11.15c-0.007,-2.199 0.15,-6.6 0.15,-6.6" fill="none" stroke="#000000" stroke-width="2" stroke-linecap="round"/><path d="M236.9,215.25c0,0 1.314,-2.737 1.6,-4.25c0.586,-3.109 -0.742,-8.387 0.95,-9.45c1.359,-0.85 4.358,3.38 5.15,5.95c0.728,2.175 -1,7 -1,7" fill="none" stroke="#000000" stroke-width="2" stroke-linecap="round"/><g stroke-linecap="butt"><path d="M240.2,165.45c2.552,0 4.865,1.036 6.539,2.711c1.675,1.674 2.711,3.987 2.711,6.539c0,2.552 -1.036,4.865 -2.711,6.539c-1.674,1.675 -3.987,2.711 -6.539,2.711c-2.552,0 -4.865,-1.036 -6.539,-2.711c-1.675,-1.674 -2.711,-3.987 -2.711,-6.539c0,-2.552 1.036,-4.865 2.711,-6.539c1.674,-1.675 3.987,-2.711 6.539,-2.711z" fill="#e5e5e5" stroke="#000000" stroke-width="2"/><path d="M235.4066,168.6091c1.399,-1.1006 2.8978,-1.8025 4.1911,-2.0476c1.2919,-0.2453 2.3782,-0.0337 2.9495,0.6925c0.5713,0.7263 0.5212,1.8319 -0.0213,3.0297c-0.5427,1.1993 -1.5778,2.4907 -2.9768,3.5913c-1.399,1.1005 -2.8978,1.8025 -4.1911,2.0476c-1.2918,0.2452 -2.3782,0.0336 -2.9495,-0.6926c-0.5713,-0.7262 -0.5212,-1.8319 0.0213,-3.0297c0.5427,-1.1992 1.5778,-2.4907 2.9768,-3.5912z" fill="#ffffff" stroke="none" stroke-width="1"/></g><path d="M229.25,195.5c0,0 0.751,-4.638 2.5,-6.25c1.906,-1.729 5.184,-3.3 7.45,-2.1c2.294,1.213 0.623,5.28 2.05,7.35c0.972,1.286 4,1.75 4,1.75" fill="none" stroke="#000000" stroke-width="2" stroke-linecap="round"/></g></g></svg>