<svg version="1.1" xmlns="http://www.w3.org/2000/svg" xmlns:xlink="http://www.w3.org/1999/xlink" width="21.45" height="52" viewBox="0,0,21.45,52"><g transform="translate(-229,-163.95)"><g data-paper-data="{&quot;isPaintingLayer&quot;:true}" fill-rule="nonzero" stroke-linejoin="miter" stroke-miterlimit="10" stroke-dasharray="" stroke-dashoffset="0" style="mix-blend-mode: normal"><path d="M239.55,201.95c0,0 -0.296,-7.551 -0.35,-11.15c-0.007,-2.199 0.15,-6.6 0.15,-6.6" fill="none" stroke="#000000" stroke-width="2" stroke-linecap="round"/><path d="M236.8,214.95c0,0 1.499,-3.682 1.95,-5.55c0.437,-2.624 -0.238,-7.681 0.7,-7.85c0.936,-0.169 2.594,4.44 3.3,6.85c0.604,1.969 0.75,6 0.75,6" fill="none" stroke="#000000" stroke-width="2" stroke-linecap="round"/><g stroke-linecap="butt"><path d="M240.2,164.95c2.552,0 4.865,1.036 6.539,2.711c1.675,1.674 2.711,3.987 2.711,6.539c0,2.552 -1.036,4.865 -2.711,6.539c-1.674,1.675 -3.987,2.711 -6.539,2.711c-2.552,0 -4.865,-1.036 -6.539,-2.711c-1.675,-1.674 -2.711,-3.987 -2.711,-6.539c0,-2.552 1.036,-4.865 2.711,-6.539c1.674,-1.675 3.987,-2.711 6.539,-2.711z" fill="#e5e5e5" stroke="#000000" stroke-width="2"/><path d="M235.4066,168.1091c1.399,-1.1006 2.8978,-1.8025 4.1911,-2.0476c1.2919,-0.2453 2.3782,-0.0337 2.9495,0.6925c0.5713,0.7263 0.5212,1.8319 -0.0213,3.0297c-0.5427,1.1993 -1.5778,2.4907 -2.9768,3.5913c-1.399,1.1005 -2.8978,1.8025 -4.1911,2.0476c-1.2918,0.2452 -2.3782,0.0336 -2.9495,-0.6926c-0.5713,-0.7262 -0.5212,-1.8319 0.0213,-3.0297c0.5427,-1.1992 1.5778,-2.4907 2.9768,-3.5912z" fill="#ffffff" stroke="none" stroke-width="1"/></g><path d="M230,197.75c0,0 1.323,-5.339 3,-7.5c1.552,-1.735 4.057,-4.423 6.2,-3.6c2.396,0.924 1.619,5.266 3.05,7.6c0.582,1.032 2.75,2.25 2.75,2.25" fill="none" stroke="#000000" stroke-width="2" stroke-linecap="round"/></g></g></svg>