<svg version="1.1" xmlns="http://www.w3.org/2000/svg" xmlns:xlink="http://www.w3.org/1999/xlink" width="20.5" height="52.5" viewBox="0,0,20.5,52.5"><g transform="translate(-229.95,-163.45)"><g data-paper-data="{&quot;isPaintingLayer&quot;:true}" fill-rule="nonzero" stroke-linejoin="miter" stroke-miterlimit="10" stroke-dasharray="" stroke-dashoffset="0" style="mix-blend-mode: normal"><path d="M239.55,201.95c0,0 -0.296,-7.551 -0.35,-11.15c-0.007,-2.199 0.15,-6.6 0.15,-6.6" fill="none" stroke="#000000" stroke-width="2" stroke-linecap="round"/><path d="M232.5,198.15c0,0 0.52,-4.326 1.5,-6.25c1.316,-2.189 3.254,-6.13 5.2,-5.75c2.039,0.401 1.619,5.266 3.05,7.6c0.582,1.032 2.75,2.25 2.75,2.25" fill="none" stroke="#000000" stroke-width="2" stroke-linecap="round"/><path d="M236.8,214.95c0,0 0.424,-4.008 0.75,-5.8c0.462,-2.567 1.06,-7.551 1.9,-7.6c0.838,-0.048 1.595,5.169 2.35,8c0.394,1.5 1.1,5 1.1,5" fill="none" stroke="#000000" stroke-width="2" stroke-linecap="round"/><g stroke-linecap="butt"><path d="M240.2,164.45c2.552,0 4.865,1.036 6.539,2.711c1.675,1.674 2.711,3.987 2.711,6.539c0,2.552 -1.036,4.865 -2.711,6.539c-1.674,1.675 -3.987,2.711 -6.539,2.711c-2.552,0 -4.865,-1.036 -6.539,-2.711c-1.675,-1.674 -2.711,-3.987 -2.711,-6.539c0,-2.552 1.036,-4.865 2.711,-6.539c1.674,-1.675 3.987,-2.711 6.539,-2.711z" fill="#e5e5e5" stroke="#000000" stroke-width="2"/><path d="M235.4066,167.6091c1.399,-1.1006 2.8978,-1.8025 4.1911,-2.0476c1.2919,-0.2453 2.3782,-0.0337 2.9495,0.6925c0.5713,0.7263 0.5212,1.8319 -0.0213,3.0297c-0.5427,1.1993 -1.5778,2.4907 -2.9768,3.5913c-1.399,1.1005 -2.8978,1.8025 -4.1911,2.0476c-1.2918,0.2452 -2.3782,0.0336 -2.9495,-0.6926c-0.5713,-0.7262 -0.5212,-1.8319 0.0213,-3.0297c0.5427,-1.1992 1.5778,-2.4907 2.9768,-3.5912z" fill="#ffffff" stroke="none" stroke-width="1"/></g></g></g></svg>