<svg version="1.1" xmlns="http://www.w3.org/2000/svg" xmlns:xlink="http://www.w3.org/1999/xlink" width="24.6516" height="51.02423" viewBox="0,0,24.6516,51.02423"><g transform="translate(-226,-165.02577)"><g data-paper-data="{&quot;isPaintingLayer&quot;:true}" fill-rule="nonzero" stroke-linejoin="miter" stroke-miterlimit="10" stroke-dasharray="" stroke-dashoffset="0" style="mix-blend-mode: normal"><path d="M239.55,202.95c0,0 -0.296,-7.551 -0.35,-11.15c-0.007,-2.199 0.15,-6.6 0.15,-6.6" fill="none" stroke="#000000" stroke-width="2" stroke-linecap="round"/><path d="M236.75,215.05c0,0 2.815,-4.178 3.35,-6.55c0.419,-1.93 -1.662,-5.494 -0.6,-5.85c1.205,-0.399 4.339,2.321 5.1,4.4c0.927,2.234 -0.6,7.1 -0.6,7.1" fill="none" stroke="#000000" stroke-width="2" stroke-linecap="round"/><g stroke-linecap="butt"><path d="M239.3052,166.101c2.5315,-0.323 4.957,0.4119 6.8296,1.8616c1.8734,1.4485 3.1938,3.6118 3.5168,6.1433c0.3229,2.5315 -0.412,4.957 -1.8616,6.8295c-1.4486,1.8734 -3.6119,3.1938 -6.1433,3.5168c-2.5315,0.323 -4.957,-0.4119 -6.8296,-1.8616c-1.8734,-1.4485 -3.1938,-3.6118 -3.5168,-6.1433c-0.323,-2.5315 0.412,-4.957 1.8616,-6.8295c1.4486,-1.8734 3.6118,-3.1938 6.1433,-3.5168z" fill="#e5e5e5" stroke="#000000" stroke-width="2"/><path d="M234.9455,169.8312c1.2485,-1.2687 2.6464,-2.1547 3.8983,-2.5615c1.2504,-0.4068 2.3548,-0.3344 3.0135,0.3136c0.6586,0.6481 0.7488,1.7512 0.3622,3.0081c-0.3865,1.2583 -1.2498,2.6703 -2.4983,3.9391c-1.2484,1.2687 -2.6463,2.1547 -3.8982,2.5615c-1.2505,0.4068 -2.3549,0.3344 -3.0135,-0.3136c-0.6586,-0.6481 -0.7488,-1.7512 -0.3623,-3.0081c0.3866,-1.2583 1.2499,-2.6703 2.4983,-3.9391z" fill="#ffffff" stroke="none" stroke-width="1"/></g><path d="M227,195.5c0,0 2.183,-4.088 4,-5.5c2.446,-1.357 5.693,-3.448 8.2,-2.35c2.27,0.992 0.623,5.28 2.05,7.35c0.972,1.286 4,1.75 4,1.75" fill="none" stroke="#000000" stroke-width="2" stroke-linecap="round"/></g></g></svg>