<svg version="1.1" xmlns="http://www.w3.org/2000/svg" xmlns:xlink="http://www.w3.org/1999/xlink" width="14.03598" height="14.15896" viewBox="0,0,14.03598,14.15896"><g transform="translate(-233.03142,-172.83774)"><g data-paper-data="{&quot;isPaintingLayer&quot;:true}" fill-rule="nonzero" stroke="#000000" stroke-linecap="round" stroke-linejoin="miter" stroke-miterlimit="10" stroke-dasharray="" stroke-dashoffset="0" style="mix-blend-mode: normal"><path d="M236.4415,174.7022c1.4555,-0.9953 3.1789,-1.3054 4.7875,-1.0043c1.6083,0.303 3.1017,1.2174 4.0969,2.6729c0.9953,1.4556 1.3055,3.179 1.0043,4.7876c-0.303,1.6082 -1.2173,3.1016 -2.6729,4.0969c-1.4556,0.9952 -3.1789,1.3054 -4.7875,1.0042c-1.6083,-0.303 -3.1017,-1.2173 -4.0969,-2.6728c-0.9953,-1.4556 -1.3055,-3.179 -1.0043,-4.7876c0.303,-1.6082 1.2173,-3.1016 2.6729,-4.0969z" fill="#ff9400" stroke-width="1.5"/><path d="M236.55,174.8c0,0 1.235,2.222 1.45,3.45c0.248,1.419 0.238,2.86 -0.1,4.2c-0.263,1.114 -1.65,2.95 -1.65,2.95" fill="none" stroke-width="1"/><path d="M244,184.35c0,0 -1.086,-2.392 -1.1,-3.75c-0.013,-1.49 1.05,-4.35 1.05,-4.35" fill="none" stroke-width="1"/><path d="M240.45,174.85c0,0 0.342,4.134 0.3,6.2c-0.031,1.504 -0.4,4.45 -0.4,4.45" fill="none" stroke-width="1"/><path d="M246.3,179.6c0,0 -2.098,0.865 -3.2,0.95c-1.781,0.184 -3.619,0.148 -5.35,-0.15c-1.406,-0.24 -4.05,-1.4 -4.05,-1.4" fill="none" stroke-width="1"/></g></g></svg>